<svg width="18" height="23" viewBox="0 0 18 23" fill="none" xmlns="http://www.w3.org/2000/svg">
<path d="M0.00180549 14.9124V14.7079C0.0367213 14.0531 0.243377 13.4187 0.601265 12.8677C1.19803 12.1991 1.60828 11.3869 1.79124 10.5119C1.83597 9.84518 1.79124 9.16066 1.83597 8.48503C2.15807 5.24024 5.3701 3 8.44792 3H8.5374C11.6689 3 14.8004 5.24024 15.1404 8.48503C15.203 9.15177 15.1404 9.84518 15.1941 10.5119C15.3726 11.3884 15.7834 12.2017 16.3841 12.8677C16.7575 13.4124 16.9712 14.0495 17.0015 14.7079V14.9124C17.0069 15.7993 16.6891 16.6582 16.1067 17.3304C15.3595 18.1274 14.3439 18.624 13.2525 18.7261C10.0657 19.135 6.83912 19.135 3.65225 18.7261C2.5736 18.6157 1.57205 18.1197 0.833891 17.3304C0.269752 16.6518 -0.0260755 15.7921 0.00180549 14.9124Z" fill="#1877F2"/>
<path opacity="0.4" d="M9.66469 20.0952C9.02945 20.0507 8.51051 20.0952 7.99157 20.0952C7.47693 20.0863 6.96312 20.14 6.46161 20.2552C6.03215 20.353 5.56689 20.5841 5.56689 21.073C5.61196 21.5456 5.86813 21.9731 6.26477 22.2376C7.02883 22.8211 7.99167 23.0858 8.94892 22.9755C9.87941 22.9069 10.7299 22.4273 11.2662 21.6687C11.5627 21.2843 11.4951 20.735 11.1141 20.433C10.6631 20.2125 10.1674 20.097 9.66469 20.0952Z" fill="#1877F2"/>
<circle cx="13.5" cy="3.5" r="3.5" fill="#EA605B"/>
</svg>
