<svg width="18" height="20" viewBox="0 0 18 20" fill="none" xmlns="http://www.w3.org/2000/svg">
<path d="M0.00676782 6.77232C-0.0494508 5.65586 0.245895 4.55305 0.843553 3.62839L0.999237 3.40103L1.0121 3.38857L1.12019 3.26175L1.23342 3.13226L1.24628 3.11891C1.46245 2.8973 1.70177 2.70239 1.95997 2.53596L2.03288 2.48979L2.10579 2.44696L2.27735 2.34817C2.34683 2.31524 2.42232 2.27608 2.4918 2.24315C2.54241 2.22357 2.59302 2.19776 2.64363 2.17818C2.73885 2.13813 2.84007 2.09897 2.94129 2.06604C2.9756 2.04913 3.01163 2.03578 3.04851 2.02688L3.08947 2.01042L3.13429 1.99396C3.59578 1.85601 4.07015 1.76078 4.54965 1.71717L4.5 1.72298V0.728347C4.5 0.329541 4.82169 0.00708316 5.21955 0.00708316C5.61741 0.00708316 5.94 0.329541 5.94 0.728347V3.87209C5.94 4.2709 5.61741 4.59425 5.21955 4.59425C4.82169 4.59425 4.5 4.2709 4.5 3.87209L4.50005 3.14528C4.0277 3.19257 3.56389 3.3101 3.124 3.49626C1.98883 4.00694 1.44745 4.97947 1.39615 6.52067L1.39211 6.76876V7.15591H16.6085V6.75897C16.6377 6.0452 16.4945 5.33499 16.1908 4.6933C15.8991 4.14418 15.4325 3.71787 14.8689 3.48647C14.51 3.33197 14.1341 3.22417 13.75 3.16536L13.5 3.13498L13.5 3.86846C13.5 4.26555 13.1778 4.58717 12.78 4.58717C12.3822 4.58717 12.06 4.26555 12.06 3.86846L12.06 3.08098L5.947 3.08153V1.65131L12.06 1.65098L12.06 0.724117C12.0564 0.32703 12.3768 0.0027136 12.7746 1.48605e-06C13.1724 -0.00267671 13.4973 0.31625 13.5 0.713336L13.5006 1.71745C13.85 1.75192 14.1965 1.81287 14.5375 1.89996L14.8767 1.99574C14.9041 2.00108 14.9247 2.0082 14.9624 2.02154C15.0002 2.03489 15.0319 2.04824 15.0697 2.0607C15.17 2.09363 15.2635 2.13279 15.3605 2.17284C15.4162 2.19242 15.4677 2.21823 15.5114 2.23781C15.5869 2.27074 15.6641 2.3099 15.7259 2.34283C15.7893 2.37576 15.8503 2.41225 15.9034 2.44162C15.9566 2.47099 15.9978 2.50392 16.0424 2.53062C16.2367 2.65611 16.4213 2.79762 16.5938 2.95327L16.7621 3.11357L16.7698 3.12692L16.8874 3.25174L16.998 3.38323L17.004 3.39569C17.6509 4.29034 17.9989 5.37685 18 6.49001L17.993 6.76876V7.15591H18V14.9102C18 18.2916 16.1116 20 12.3691 20H5.62232C1.88841 20 1.34096e-09 18.2916 1.34096e-09 14.9102V7.15591H0.00676782V6.77232ZM13.1159 14.2463C12.6524 14.2463 12.2833 14.6269 12.2833 15.096C12.2918 15.5652 12.6609 15.9458 13.1159 15.9458C13.5708 15.9458 13.9399 15.5652 13.9399 15.096C13.9399 14.6269 13.5708 14.2463 13.1159 14.2463ZM9.00429 14.2374C8.54077 14.2463 8.17167 14.6269 8.17167 15.096C8.17167 15.5652 8.54936 15.9458 9.00429 15.9458C9.45923 15.9458 9.82833 15.5652 9.82833 15.0872C9.81974 14.6269 9.45923 14.2463 9.00429 14.2374ZM4.88412 14.2374C4.4206 14.2374 4.0515 14.6269 4.06009 15.096C4.06009 15.5652 4.42918 15.9458 4.88412 15.9458C5.33906 15.9458 5.70815 15.5563 5.70815 15.0872C5.70815 14.618 5.33906 14.2374 4.88412 14.2374ZM13.1159 10.617C12.6524 10.617 12.2918 10.9976 12.2918 11.4668C12.2918 11.9359 12.6609 12.3166 13.1159 12.3166C13.5708 12.3166 13.9399 11.9359 13.9399 11.4668C13.9399 10.9976 13.5708 10.617 13.1159 10.617ZM9.00429 10.6081C8.54077 10.617 8.17167 10.9976 8.17167 11.4668C8.17167 11.9359 8.54936 12.3166 9.00429 12.3166C9.45923 12.3166 9.82833 11.9359 9.82833 11.4579C9.82833 10.9976 9.45923 10.617 9.00429 10.6081ZM4.8927 10.6081C4.42918 10.6081 4.06009 10.9976 4.06009 11.4668C4.06009 11.9359 4.42918 12.3166 4.88412 12.3166C5.34764 12.3166 5.71674 11.9271 5.70815 11.4579C5.70815 10.9888 5.33906 10.6081 4.8927 10.6081Z" fill="#828282"/>
</svg>
